<svg xmlns="http://www.w3.org/2000/svg" width="5334" height="3000">
<path d="M0 0 C1760.22 0 3520.44 0 5334 0 C5334 990 5334 1980 5334 3000 C3573.78 3000 1813.56 3000 0 3000 C0 2010 0 1020 0 0 Z" fill="#FEFEFE" transform="translate(0,0)"/>
<path d="M0 0 C2.84013375 0.00544263 5.68025915 0.00780824 8.52039719 0.00987244 C35.8273017 0.04078762 62.99756891 0.43539912 90.19694138 3.0900116 C92.56936937 3.32023604 94.94261961 3.53923096 97.31632614 3.75584412 C145.89975104 8.23600722 194.28064249 16.18990695 241.54484177 28.31785583 C243.45159313 28.79836112 245.35834924 29.27884837 247.26536179 29.75831604 C331.15254638 50.87319525 414.15880238 81.7541134 491.85148239 126.76609802 C494.62579764 128.36449793 497.41751535 129.92754949 500.21671677 131.48191833 C530.78286808 148.47204947 560.24927505 167.76430884 588.54484177 188.31785583 C589.28669724 188.8553949 590.0285527 189.39293396 590.79288864 189.94676208 C606.40192741 201.28235848 621.68090996 213.02069404 636.54484177 225.31785583 C637.82294724 226.35232849 637.82294724 226.35232849 639.12687302 227.40769958 C649.82062262 236.06603565 660.18138209 245.11845613 670.37296677 254.36082458 C672.30531658 256.10202468 674.26142107 257.80817412 676.23234177 259.50535583 C689.28667432 270.92939054 701.56254517 283.17653888 713.80900192 295.4516449 C716.56485531 298.21290867 719.32608204 300.96871943 722.08781052 303.72410583 C723.86547535 305.50243076 725.64283035 307.28106547 727.41984177 309.06004333 C728.2334819 309.87165924 729.04712204 310.68327515 729.88541794 311.51948547 C734.09612816 315.74739056 738.15837913 320.04607643 742.04218674 324.5770874 C744.42272316 327.33484789 746.92774805 329.9738284 749.41984177 332.63035583 C753.958327 337.50371133 758.23832974 342.52089561 762.40812302 347.71629333 C764.5036667 350.26772312 766.68447331 352.70112357 768.91984177 355.13035583 C772.90167763 359.5048641 776.5622626 364.06314658 780.18375778 368.73435974 C783.1452966 372.55100152 786.16444006 376.30997301 789.23722458 380.0375824 C796.44732654 388.79487923 803.21426978 397.8329608 809.87003708 407.0165863 C811.39181891 409.1075944 812.92934855 411.18552227 814.47452927 413.25926208 C859.92865325 474.66728074 898.2733179 542.76217512 927.54484177 613.31785583 C927.79927048 613.92854919 928.05369919 614.53924255 928.31583786 615.16844177 C958.74070333 688.24227631 980.57342827 764.61360145 999.29484177 887.44285583 C999.43735367 888.64021866 999.43735367 888.64021866 999.5827446 889.86177063 C1000.34418935 896.33790943 1000.96811915 902.82281305 1001.54484177 909.31785583 C1001.60608482 910.00151592 1001.66732788 910.68517601 1001.73042679 911.38955307 C1004.15166721 938.61996388 1005.02851049 965.69725683 1004.93595505 993.03001404 C1004.9188995 998.10434437 1004.92902604 1003.17820077 1004.94629192 1008.25251484 C1005.02696383 1036.38493469 1003.81970628 1064.27966984 1001.54484177 1092.31785583 C1001.48409218 1093.07109194 1001.42334259 1093.82432804 1001.36075211 1094.60038948 C993.97868155 1185.74412478 972.21166728 1276.54413675 872.00968552 1501.83299255 C870.31641976 1504.7053357 868.69650912 1507.61211282 867.09244919 1510.53489685 C848.90495968 1543.65893099 826.43334049 1575.2959008 803.43937302 1605.22801208 C800.49322549 1609.06570952 797.59077653 1612.93236354 794.71207809 1616.82078552 C789.74120145 1623.52954165 784.56764296 1629.9878948 779.11906052 1636.31394958 C776.75534365 1639.07221707 774.45359212 1641.8683267 772.16984177 1644.69285583 C763.99694259 1654.71594787 755.46706477 1664.42290142 746.6520195 1673.88450623 C743.97783678 1676.75561621 741.35299188 1679.65549349 738.79484177 1682.63035583 C735.93066641 1685.94640352 732.88393649 1689.02493679 729.73234177 1692.06785583 C727.90639644 1693.94597103 726.21150662 1695.85714804 724.50968552 1697.84519958 C720.10977769 1702.90866932 715.37991468 1707.63305881 710.62955856 1712.36351013 C709.10992508 1713.87778163 707.59571659 1715.39733014 706.08195114 1716.91746521 C701.25101857 1721.75135712 696.36432802 1726.46454449 691.16959763 1730.91136169 C689.19402692 1732.62154394 687.3593207 1734.43857408 685.54484177 1736.31785583 C682.39504147 1739.51046895 679.13264688 1742.48946863 675.73234177 1745.41160583 C673.18972777 1747.62731231 670.71373978 1749.90884175 668.23234177 1752.19285583 C663.76961344 1756.26325639 659.18226176 1760.11962493 654.48234177 1763.91160583 C651.18129507 1766.61565473 647.95749059 1769.3993006 644.73234177 1772.19285583 C638.45793109 1777.6053359 632.0155831 1782.76069124 625.46232224 1787.83006287 C623.41194182 1789.42097428 621.37047271 1791.02285584 619.32999802 1792.62644958 C594.94175388 1811.75997652 569.70439128 1829.6841927 543.54484177 1846.31785583 C542.62654587 1846.90389587 541.70824997 1847.48993591 540.76212692 1848.09373474 C518.23150321 1862.44180329 495.11758211 1875.75936511 471.54484177 1888.31785583 C470.54501266 1888.85201111 469.54518356 1889.38616638 468.51505661 1889.93650818 C403.26021609 1924.66549284 333.91471836 1951.59067196 262.40446091 1970.28807068 C259.68762082 1971.0129509 256.98119026 1971.75438344 254.2770195 1972.52342224 C243.37674893 1975.6227091 232.43120544 1978.28924609 221.35734177 1980.69285583 C220.47944992 1980.88417084 219.60155807 1981.07548584 218.69706345 1981.27259827 C175.67352936 1990.61499739 132.1711475 1997.29275836 88.29232407 2001.00010681 C85.98834921 2001.19546084 83.68471621 2001.39496462 81.38171005 2001.60142517 C57.74513538 2003.68541274 34.11621121 2003.62679604 10.40543747 2003.57859802 C4.7471443 2003.56721129 -0.91096053 2003.57397128 -6.56924725 2003.58548164 C-30.6149922 2003.62696996 -54.48716367 2003.39399332 -78.45515823 2001.31785583 C-80.04891588 2001.18998039 -81.64273928 2001.06291953 -83.23665237 2000.93699646 C-86.8345711 2000.63803597 -90.42557605 2000.30455582 -94.01765823 1999.94285583 C-95.91729324 1999.7539679 -95.91729324 1999.7539679 -97.85530472 1999.56126404 C-111.7667122 1998.13765501 -125.61940242 1996.34390726 -139.45515823 1994.31785583 C-140.17787918 1994.21215271 -140.90060013 1994.10644958 -141.64522171 1993.99754333 C-197.1155289 1985.8485163 -251.87971237 1973.62429677 -305.17091751 1956.06925964 C-307.4927395 1955.30549343 -309.81675881 1954.54872758 -312.14119339 1953.79295349 C-346.34948115 1942.63667152 -379.79471997 1929.41843079 -412.45515823 1914.31785583 C-413.81159916 1913.69284632 -415.16804469 1913.06784678 -416.52449417 1912.44285583 C-434.40899715 1904.18893014 -452.14311441 1895.72714988 -469.45515823 1886.31785583 C-470.5068721 1885.74744568 -471.55858597 1885.17703552 -472.64216995 1884.58934021 C-534.72606162 1850.79305128 -592.9526061 1810.58943962 -646.75935745 1764.75926208 C-648.45750669 1763.31585968 -650.16106016 1761.87904161 -651.86531448 1760.44285583 C-658.79825879 1754.57734774 -665.53516876 1748.54479461 -672.1304512 1742.30101013 C-675.04288575 1739.5470451 -677.98111649 1736.85352009 -681.02962112 1734.25047302 C-686.18699399 1729.7475709 -690.99994826 1724.91650221 -695.83406448 1720.07176208 C-696.81462705 1719.09187531 -697.79533783 1718.11213683 -698.7761879 1717.13253784 C-700.81916036 1715.09102943 -702.86033992 1713.04775018 -704.90022659 1711.00315857 C-707.4943569 1708.4033318 -710.09295257 1705.80802211 -712.69292164 1703.21403599 C-714.71523648 1701.19536188 -716.73513013 1699.17427851 -718.7543354 1697.15249443 C-720.17032069 1695.7355326 -721.58829338 1694.32055766 -723.00632095 1692.90563965 C-727.49396473 1688.40182157 -731.86001483 1683.85298924 -735.99191666 1679.01921082 C-738.35532566 1676.2712041 -740.8507991 1673.64830844 -743.33015823 1671.00535583 C-747.86417517 1666.13679833 -752.14008605 1661.12453419 -756.30672073 1655.93504333 C-758.47027595 1653.2994397 -760.71905384 1650.77362209 -763.01765823 1648.25535583 C-766.59281399 1644.32268451 -769.96407089 1640.28550118 -773.25203323 1636.11082458 C-774.8535898 1634.08048248 -776.46633607 1632.06380714 -778.09578323 1630.05613708 C-791.15187629 1613.93744873 -803.42954715 1597.21496113 -815.45515823 1580.31785583 C-816.0315303 1579.50816345 -816.60790237 1578.69847107 -817.20174026 1577.86424255 C-824.75531906 1567.22571867 -832.09909207 1556.48420846 -839.08992386 1545.4672699 C-840.50207067 1543.24399727 -841.92358066 1541.02689448 -843.34578323 1538.81004333 C-872.64386133 1492.97754954 -898.26685551 1444.4306897 -919.45515823 1394.31785583 C-919.95338089 1393.14013611 -920.45160355 1391.96241638 -920.96492386 1390.74900818 C-934.51731027 1358.57198785 -946.09398553 1325.65056336 -956.45515823 1292.31785583 C-956.79176468 1291.25470154 -957.12837112 1290.19154724 -957.47517776 1289.09617615 C-975.68426715 1231.45966395 -986.7165098 1171.35378364 -993.23445511 1111.34263611 C-993.44852903 1109.37867366 -993.66662331 1107.41515072 -993.88484573 1105.4516449 C-997.50014364 1072.70079755 -998.79619874 1040.15921587 -998.71590042 1007.23045349 C-998.70447379 1002.5025831 -998.7113119 997.77493719 -998.72278309 993.04707432 C-998.76735581 971.36993627 -998.25482004 949.92636436 -996.45515823 928.31785583 C-996.32064227 926.54767597 -996.18814251 924.77734108 -996.05818558 923.00682068 C-995.73470433 918.62926678 -995.38451977 914.25447415 -995.01765823 909.88035583 C-994.95512863 909.13101776 -994.89259903 908.38167969 -994.82817459 907.6096344 C-993.74871997 894.78607737 -992.31477518 882.05334708 -990.45515823 869.31785583 C-990.16568412 867.26192416 -989.87663906 865.20593205 -989.58797073 863.14988708 C-988.59868275 856.19715861 -987.5426596 849.25586206 -986.45515823 842.31785583 C-986.30367325 841.35039429 -986.30367325 841.35039429 -986.14912796 840.36338806 C-973.36670246 759.063585 -949.74518205 679.6962916 -910.45515823 589.31785583 C-909.69549759 587.64046326 -909.69549759 587.64046326 -908.92049026 585.92918396 C-896.00428168 557.46908054 -881.96921056 529.60916795 -865.91267776 502.78367615 C-863.81238143 499.23041098 -861.82237635 495.61987339 -859.83015823 492.00535583 C-844.62084046 464.7587723 -826.58622238 438.34470392 -807.95027542 413.33396912 C-806.29283905 411.09897409 -804.6583248 408.84821108 -803.02547073 406.59519958 C-796.44412763 397.54077392 -789.65631088 388.72084168 -782.53718948 380.08348083 C-779.60795274 376.52570341 -776.77691313 372.89849793 -773.95515823 369.25535583 C-768.56962071 362.33684529 -762.83604346 355.74677915 -757.05623245 349.1572113 C-755.51893615 347.39112556 -754.00078746 345.6108121 -752.49031448 343.82176208 C-746.01565913 336.15686482 -739.29333122 328.7773923 -732.38875198 321.49754333 C-729.37811637 318.3223707 -726.43772275 315.08970661 -723.50203323 311.84519958 C-717.01672254 304.72420991 -710.21247602 297.92429727 -703.39290237 291.12522888 C-701.25688466 288.99460949 -699.12631705 286.85864361 -696.99617386 284.72215271 C-695.61433317 283.34097234 -694.23218257 281.96010194 -692.84968948 280.57957458 C-692.22552643 279.9533873 -691.60136337 279.32720001 -690.95828629 278.68203735 C-687.19852958 274.94188408 -683.32556008 271.38638157 -679.30415726 267.92874146 C-676.16387466 265.19286328 -673.16495519 262.30752368 -670.14265823 259.44285583 C-664.94412393 254.54935736 -659.6352547 249.90675463 -654.05281448 245.45066833 C-651.31960937 243.20656308 -648.73379231 240.84917831 -646.14265823 238.44285583 C-641.59026305 234.2580053 -636.87056355 230.40724856 -631.98567581 226.6259613 C-628.20507751 223.69888251 -624.4800787 220.71691011 -620.78841019 217.67845154 C-614.16799459 212.23338463 -607.43773171 206.96136993 -600.58015823 201.81785583 C-599.46906693 200.98399353 -599.46906693 200.98399353 -598.33552933 200.13328552 C-595.71776194 198.1822714 -593.08841169 196.24793144 -590.45515823 194.31785583 C-589.83093979 193.85959412 -589.20672134 193.4013324 -588.56358719 192.92918396 C-576.95329911 184.42175884 -565.13629379 176.27404157 -553.14265823 168.31785583 C-552.28942978 167.75069855 -551.43620132 167.18354126 -550.55711746 166.59919739 C-522.67896482 148.07726605 -494.0158856 131.03276378 -464.45515823 115.31785583 C-463.37991898 114.74599548 -462.30467972 114.17413513 -461.19685745 113.58494568 C-386.68397774 74.12946976 -307.18218718 45.0588772 -168.45515823 14.31785583 C-167.78847122 14.20719788 -167.12178421 14.09653992 -166.43489456 13.98252869 C-138.80386251 9.4117195 -111.13236783 5.27505837 -83.1604805 3.55149841 C-81.16707886 3.37934018 -79.1800545 3.12906274 -77.20080948 2.83601379 C-51.79953868 -0.67789334 -25.58249656 -0.0510295 0 0 Z" fill="#FEFEFE" transform="translate(2663.4551582336426,189.68214416503906)"/>
<path d="M0 0 C31.02 0 62.04 0 94 0 C94.33 87.45 94.66 174.9 95 265 C96.32 258.4 97.64 251.8 99 245 C100.16683873 240.85478089 101.33945849 236.86113731 102.75 232.8125 C103.09506592 231.80622559 103.44013184 230.79995117 103.7956543 229.76318359 C111.10622209 208.93511871 121.96480557 190.03082798 136 173 C136.45987305 172.4332959 136.91974609 171.8665918 137.39355469 171.28271484 C167.18902553 134.69904093 210.48469496 110.53691698 257 103 C257.70157227 102.88430664 258.40314453 102.76861328 259.12597656 102.64941406 C305.60454082 95.36755625 348.12081752 106.73714355 388 130 C388.33 120.43 388.66 110.86 389 101 C401.10842276 100.97745043 413.21683169 100.95908576 425.32527065 100.94818783 C430.94707962 100.94295864 436.56887353 100.93586034 442.19067383 100.92456055 C447.61118277 100.91373294 453.0316772 100.90772344 458.45219612 100.90512276 C460.52514945 100.90326828 462.59810194 100.89964723 464.67104912 100.89426994 C467.56383893 100.8870612 470.45656796 100.88600899 473.34936523 100.88647461 C474.21538864 100.88287933 475.08141205 100.87928406 475.97367859 100.87557983 C481.88594784 100.88594784 481.88594784 100.88594784 483 102 C483.09793532 104.0849957 483.12371194 106.17338006 483.12304783 108.26067448 C483.12420167 108.92535918 483.12535552 109.59004388 483.12654433 110.27487054 C483.12921744 112.52995619 483.12468318 114.78497221 483.12025452 117.04005432 C483.12069008 118.66196409 483.1215647 120.28387379 483.12284368 121.90578312 C483.12509163 126.38435117 483.12106329 130.86289555 483.11606562 135.34146059 C483.11176558 140.16289228 483.11320723 144.98432254 483.1139679 149.80575562 C483.11449342 158.16641623 483.1113437 166.52706908 483.10573006 174.88772774 C483.09761883 186.9759845 483.09500023 199.06423749 483.09374207 211.15249669 C483.09155095 230.76271803 483.08488926 250.37293521 483.07543945 269.9831543 C483.06626687 289.03784158 483.05918529 308.09252775 483.05493164 327.1472168 C483.05466892 328.32084334 483.05440619 329.49446987 483.05413551 330.70366085 C483.05283051 336.59113021 483.0515668 342.47859958 483.05032361 348.36606896 C483.03994914 397.24404966 483.02150984 446.12202269 483 495 C451.32 495 419.64 495 387 495 C387 486.09 387 477.18 387 468 C384.9375 469.155 382.875 470.31 380.75 471.5 C363.78782148 480.64523685 345.68975247 486.49863872 327 491 C326.19788086 491.1949707 325.39576172 491.38994141 324.56933594 491.59082031 C299.33446235 497.36162874 268.98290997 496.05435423 244 490 C243.11296387 489.79101074 242.22592773 489.58202148 241.31201172 489.36669922 C215.35169584 483.07799995 191.18730294 471.19277744 170 455 C169.10539062 454.3296875 168.21078125 453.659375 167.2890625 452.96875 C153.94401914 442.54919662 141.54083619 429.99626247 132 416 C131.53819336 415.32839844 131.07638672 414.65679688 130.60058594 413.96484375 C111.22658115 385.44590055 100.21929281 353.92540327 95 320 C94.67 377.75 94.34 435.5 94 495 C62.32 495 30.64 495 -2 495 C-2 486.09 -2 477.18 -2 468 C-4.371875 469.32 -6.74375 470.64 -9.1875 472 C-29.61936639 482.99187774 -52.0802641 489.73221887 -75 493 C-76.28648437 493.18433594 -77.57296875 493.36867188 -78.8984375 493.55859375 C-130.40808616 498.98181997 -181.70343785 484.76497723 -222.25390625 452.421875 C-240.43904174 437.62135463 -255.51940428 420.30627832 -266.98242188 399.81640625 C-267.98682999 398.02350884 -269.01606038 396.24656029 -270.046875 394.46875 C-283.26767125 371.19135385 -289.45310638 345.14463834 -294 319 C-294.33 377.08 -294.66 435.16 -295 495 C-423.37 495 -551.74 495 -684 495 C-684 364.98 -684 234.96 -684 101 C-652.98 101 -621.96 101 -590 101 C-589.505 115.355 -589.505 115.355 -589 130 C-586.875625 128.68 -584.75125 127.36 -582.5625 126 C-562.66098494 113.95573503 -541.88028558 106.86572935 -519 103 C-517.72253906 102.773125 -516.44507812 102.54625 -515.12890625 102.3125 C-465.94717403 94.81814081 -414.09616397 109.21331287 -374 138 C-366.96905289 143.24391472 -360.39102543 148.99822966 -354 155 C-353.46858398 155.49741699 -352.93716797 155.99483398 -352.38964844 156.50732422 C-319.51963473 187.52828233 -298.94628899 231.03230159 -295 276 C-294.91024902 275.31711914 -294.82049805 274.63423828 -294.72802734 273.93066406 C-292.69507427 258.81643014 -290.06439466 244.40278712 -285 230 C-284.77618652 229.35095703 -284.55237305 228.70191406 -284.32177734 228.03320312 C-269.44777503 185.68839595 -237.80706237 149.11778237 -199 127 C-198.0716333 126.46511963 -198.0716333 126.46511963 -197.12451172 125.91943359 C-153.46097297 100.9796505 -100.71737738 94.19001386 -52.06640625 106.8515625 C-41.36361982 109.80068326 -31.180852 113.74510193 -21.125 118.4375 C-20.00279053 118.95799927 -20.00279053 118.95799927 -18.85791016 119.48901367 C-12.47876442 122.55539918 -7.09018774 126.12442598 -1 130 C-0.67 87.1 -0.34 44.2 0 0 Z" fill="#010203" transform="translate(3171,2207)"/>
<path d="M0 0 C33.5218467 29.06596726 54.71713245 68.8834519 62.859375 112.29077148 C63.06433594 113.3800293 63.26929687 114.46928711 63.48046875 115.59155273 C63.95294214 118.15594281 64.41370427 120.72161081 64.859375 123.29077148 C65.00632812 122.0906543 65.15328125 120.89053711 65.3046875 119.65405273 C71.9228726 69.12823369 98.23005433 23.34376186 138.36572266 -8.12011719 C165.05492897 -28.5570027 195.81339867 -41.20276233 228.859375 -46.70922852 C230.13167969 -46.93481445 231.40398438 -47.16040039 232.71484375 -47.39282227 C277.29154045 -54.20380332 320.89871371 -43.02365041 358.859375 -19.70922852 C359.189375 -29.27922852 359.519375 -38.84922852 359.859375 -48.70922852 C390.879375 -48.70922852 421.899375 -48.70922852 453.859375 -48.70922852 C453.859375 81.64077148 453.859375 211.99077148 453.859375 346.29077148 C440.62913662 346.29077148 427.41069694 346.25845798 414.18359375 346.07202148 C412.50967064 346.0494784 410.83574583 346.0270609 409.16181946 346.00476074 C404.83676426 345.94681619 400.51173363 345.88721066 396.18670654 345.82720947 C391.74102156 345.76584502 387.29531456 345.70612003 382.84960938 345.64624023 C374.18617593 345.52931809 365.52277037 345.41048177 356.859375 345.29077148 C356.529375 336.71077148 356.199375 328.13077148 355.859375 319.29077148 C352.518125 321.02327148 352.518125 321.02327148 349.109375 322.79077148 C332.6839357 331.06678433 315.78243643 337.16086404 297.859375 341.29077148 C297.10414551 341.4701123 296.34891602 341.64945313 295.57080078 341.83422852 C270.21568932 347.56287946 239.96511261 346.37489174 214.859375 340.29077148 C213.97233887 340.08178223 213.08530273 339.87279297 212.17138672 339.6574707 C181.95622757 332.33806634 154.3137358 317.58641806 130.859375 297.29077148 C129.98539063 296.53924805 129.11140625 295.78772461 128.2109375 295.01342773 C122.97796678 290.4168994 118.27298488 285.67150704 113.859375 280.29077148 C113.43430664 279.78868164 113.00923828 279.2865918 112.57128906 278.76928711 C85.42030391 246.68006513 69.21097498 205.98819218 64.859375 164.29077148 C63.83176643 168.78288893 62.84285022 173.27558193 62 177.80639648 C52.0281253 231.24484012 25.99684871 279.48135216 -19.21142578 310.97387695 C-36.37318924 322.68870258 -55.23071614 331.42682928 -75.140625 337.29077148 C-76.996875 337.85731445 -76.996875 337.85731445 -78.890625 338.43530273 C-82.62181717 339.50882462 -86.35393897 340.43362424 -90.140625 341.29077148 C-90.7893457 341.44175293 -91.43806641 341.59273437 -92.10644531 341.74829102 C-117.60512748 347.40043792 -147.89794742 346.53615428 -173.140625 340.29077148 C-174.14077637 340.04407715 -175.14092773 339.79738281 -176.17138672 339.54321289 C-194.40917756 334.89604235 -210.32981931 327.69617433 -227.140625 319.29077148 C-227.470625 358.89077148 -227.800625 398.49077148 -228.140625 439.29077148 C-260.150625 439.29077148 -292.160625 439.29077148 -325.140625 439.29077148 C-325.18479808 402.83133465 -325.22169468 366.37192326 -325.24275566 329.91246729 C-325.24525677 325.59838309 -325.24784545 321.28429895 -325.25048828 316.97021484 C-325.2510129 316.11143569 -325.25153752 315.25265654 -325.25207804 314.36785378 C-325.26075711 300.50163273 -325.27651318 286.63542844 -325.29493059 272.76921729 C-325.31369941 258.51853055 -325.32475641 244.26785251 -325.32880199 230.01715392 C-325.33153264 221.23889358 -325.34012561 212.46068062 -325.35645793 203.68243488 C-325.36711122 197.64536169 -325.37020697 191.60831263 -325.36762775 185.57123075 C-325.3663593 182.09931495 -325.36816455 178.62748133 -325.37903595 175.15558052 C-325.43096603 155.67856111 -325.01406641 136.31268026 -321.078125 117.16577148 C-320.86679932 116.13774414 -320.65547363 115.1097168 -320.43774414 114.05053711 C-310.82309765 69.81181655 -287.11086307 24.88249918 -251.140625 -3.70922852 C-249.71363281 -4.8577832 -249.71363281 -4.8577832 -248.2578125 -6.02954102 C-174.65425866 -64.45745437 -73.36960191 -61.23815727 0 0 Z" fill="#010203" transform="translate(2004.140625,2356.709228515625)"/>
<path d="M0 0 C2.84013375 0.00544263 5.68025915 0.00780824 8.52039719 0.00987244 C35.8273017 0.04078762 62.99756891 0.43539912 90.19694138 3.0900116 C92.56936937 3.32023604 94.94261961 3.53923096 97.31632614 3.75584412 C145.89975104 8.23600722 194.28064249 16.18990695 241.54484177 28.31785583 C243.45159313 28.79836112 245.35834924 29.27884837 247.26536179 29.75831604 C331.15254638 50.87319525 414.15880238 81.7541134 491.85148239 126.76609802 C494.62579764 128.36449793 497.41751535 129.92754949 500.21671677 131.48191833 C530.78286808 148.47204947 560.24927505 167.76430884 588.54484177 188.31785583 C589.28669724 188.8553949 590.0285527 189.39293396 590.79288864 189.94676208 C606.40192741 201.28235848 621.68090996 213.02069404 636.54484177 225.31785583 C637.82294724 226.35232849 637.82294724 226.35232849 639.12687302 227.40769958 C649.82062262 236.06603565 660.18138209 245.11845613 670.37296677 254.36082458 C672.30531658 256.10202468 674.26142107 257.80817412 676.23234177 259.50535583 C689.28667432 270.92939054 701.56254517 283.17653888 713.80900192 295.4516449 C716.56485531 298.21290867 719.32608204 300.96871943 722.08781052 303.72410583 C723.86547535 305.50243076 725.64283035 307.28106547 727.41984177 309.06004333 C728.2334819 309.87165924 729.04712204 310.68327515 729.88541794 311.51948547 C734.09612816 315.74739056 738.15837913 320.04607643 742.04218674 324.5770874 C744.42272316 327.33484789 746.92774805 329.9738284 749.41984177 332.63035583 C753.958327 337.50371133 758.23832974 342.52089561 762.40812302 347.71629333 C764.5036667 350.26772312 766.68447331 352.70112357 768.91984177 355.13035583 C772.90167763 359.5048641 776.5622626 364.06314658 780.18375778 368.73435974 C783.1452966 372.55100152 786.16444006 376.30997301 789.23722458 380.0375824 C796.44732654 388.79487923 803.21426978 397.8329608 809.87003708 407.0165863 C811.39181891 409.1075944 812.92934855 411.18552227 814.47452927 413.25926208 C859.92865325 474.66728074 898.2733179 542.76217512 927.54484177 613.31785583 C927.79927048 613.92854919 928.05369919 614.53924255 928.31583786 615.16844177 C958.74070333 688.24227631 980.57342827 764.61360145 999.29484177 887.44285583 C999.43735367 888.64021866 999.43735367 888.64021866 999.5827446 889.86177063 C1000.34418935 896.33790943 1000.96811915 902.82281305 1001.54484177 909.31785583 C1001.60608482 910.00151592 1001.66732788 910.68517601 1001.73042679 911.38955307 C1004.15166721 938.61996388 1005.02851049 965.69725683 1004.93595505 993.03001404 C1004.9188995 998.10434437 1004.92902604 1003.17820077 1004.94629192 1008.25251484 C1005.02696383 1036.38493469 1003.81970628 1064.27966984 1001.54484177 1092.31785583 C1001.48409218 1093.07109194 1001.42334259 1093.82432804 1001.36075211 1094.60038948 C993.97868155 1185.74412478 972.21166728 1276.54413675 872.00968552 1501.83299255 C870.31641976 1504.7053357 868.69650912 1507.61211282 867.09244919 1510.53489685 C848.90495968 1543.65893099 826.43334049 1575.2959008 803.43937302 1605.22801208 C800.49322549 1609.06570952 797.59077653 1612.93236354 794.71207809 1616.82078552 C789.74120145 1623.52954165 784.56764296 1629.9878948 779.11906052 1636.31394958 C776.75534365 1639.07221707 774.45359212 1641.8683267 772.16984177 1644.69285583 C763.99694259 1654.71594787 755.46706477 1664.42290142 746.6520195 1673.88450623 C743.97783678 1676.75561621 741.35299188 1679.65549349 738.79484177 1682.63035583 C735.93066641 1685.94640352 732.88393649 1689.02493679 729.73234177 1692.06785583 C727.90639644 1693.94597103 726.21150662 1695.85714804 724.50968552 1697.84519958 C720.10977769 1702.90866932 715.37991468 1707.63305881 710.62955856 1712.36351013 C709.10992508 1713.87778163 707.59571659 1715.39733014 706.08195114 1716.91746521 C701.25101857 1721.75135712 696.36432802 1726.46454449 691.16959763 1730.91136169 C689.19402692 1732.62154394 687.3593207 1734.43857408 685.54484177 1736.31785583 C682.39504147 1739.51046895 679.13264688 1742.48946863 675.73234177 1745.41160583 C673.18972777 1747.62731231 670.71373978 1749.90884175 668.23234177 1752.19285583 C663.76961344 1756.26325639 659.18226176 1760.11962493 654.48234177 1763.91160583 C651.18129507 1766.61565473 647.95749059 1769.3993006 644.73234177 1772.19285583 C638.45793109 1777.6053359 632.0155831 1782.76069124 625.46232224 1787.83006287 C623.41194182 1789.42097428 621.37047271 1791.02285584 619.32999802 1792.62644958 C594.94175388 1811.75997652 569.70439128 1829.6841927 543.54484177 1846.31785583 C542.62654587 1846.90389587 541.70824997 1847.48993591 540.76212692 1848.09373474 C518.23150321 1862.44180329 495.11758211 1875.75936511 471.54484177 1888.31785583 C470.54501266 1888.85201111 469.54518356 1889.38616638 468.51505661 1889.93650818 C403.26021609 1924.66549284 333.91471836 1951.59067196 262.40446091 1970.28807068 C259.68762082 1971.0129509 256.98119026 1971.75438344 254.2770195 1972.52342224 C243.37674893 1975.6227091 232.43120544 1978.28924609 221.35734177 1980.69285583 C220.47944992 1980.88417084 219.60155807 1981.07548584 218.69706345 1981.27259827 C175.67352936 1990.61499739 132.1711475 1997.29275836 88.29232407 2001.00010681 C85.98834921 2001.19546084 83.68471621 2001.39496462 81.38171005 2001.60142517 C57.74513538 2003.68541274 34.11621121 2003.62679604 10.40543747 2003.57859802 C4.7471443 2003.56721129 -0.91096053 2003.57397128 -6.56924725 2003.58548164 C-30.6149922 2003.62696996 -54.48716367 2003.39399332 -78.45515823 2001.31785583 C-80.04891588 2001.18998039 -81.64273928 2001.06291953 -83.23665237 2000.93699646 C-86.8345711 2000.63803597 -90.42557605 2000.30455582 -94.01765823 1999.94285583 C-95.91729324 1999.7539679 -95.91729324 1999.7539679 -97.85530472 1999.56126404 C-111.7667122 1998.13765501 -125.61940242 1996.34390726 -139.45515823 1994.31785583 C-140.17787918 1994.21215271 -140.90060013 1994.10644958 -141.64522171 1993.99754333 C-197.1155289 1985.8485163 -251.87971237 1973.62429677 -305.17091751 1956.06925964 C-307.4927395 1955.30549343 -309.81675881 1954.54872758 -312.14119339 1953.79295349 C-346.34948115 1942.63667152 -379.79471997 1929.41843079 -412.45515823 1914.31785583 C-413.81159916 1913.69284632 -415.16804469 1913.06784678 -416.52449417 1912.44285583 C-434.40899715 1904.18893014 -452.14311441 1895.72714988 -469.45515823 1886.31785583 C-470.5068721 1885.74744568 -471.55858597 1885.17703552 -472.64216995 1884.58934021 C-534.72606162 1850.79305128 -592.9526061 1810.58943962 -646.75935745 1764.75926208 C-648.45750669 1763.31585968 -650.16106016 1761.87904161 -651.86531448 1760.44285583 C-658.79825879 1754.57734774 -665.53516876 1748.54479461 -672.1304512 1742.30101013 C-675.04288575 1739.5470451 -677.98111649 1736.85352009 -681.02962112 1734.25047302 C-686.18699399 1729.7475709 -690.99994826 1724.91650221 -695.83406448 1720.07176208 C-696.81462705 1719.09187531 -697.79533783 1718.11213683 -698.7761879 1717.13253784 C-700.81916036 1715.09102943 -702.86033992 1713.04775018 -704.90022659 1711.00315857 C-707.4943569 1708.4033318 -710.09295257 1705.80802211 -712.69292164 1703.21403599 C-714.71523648 1701.19536188 -716.73513013 1699.17427851 -718.7543354 1697.15249443 C-720.17032069 1695.7355326 -721.58829338 1694.32055766 -723.00632095 1692.90563965 C-727.49396473 1688.40182157 -731.86001483 1683.85298924 -735.99191666 1679.01921082 C-738.35532566 1676.2712041 -740.8507991 1673.64830844 -743.33015823 1671.00535583 C-747.86417517 1666.13679833 -752.14008605 1661.12453419 -756.30672073 1655.93504333 C-758.47027595 1653.2994397 -760.71905384 1650.77362209 -763.01765823 1648.25535583 C-766.59281399 1644.32268451 -769.96407089 1640.28550118 -773.25203323 1636.11082458 C-774.8535898 1634.08048248 -776.46633607 1632.06380714 -778.09578323 1630.05613708 C-791.15187629 1613.93744873 -803.42954715 1597.21496113 -815.45515823 1580.31785583 C-816.0315303 1579.50816345 -816.60790237 1578.69847107 -817.20174026 1577.86424255 C-824.75531906 1567.22571867 -832.09909207 1556.48420846 -839.08992386 1545.4672699 C-840.50207067 1543.24399727 -841.92358066 1541.02689448 -843.34578323 1538.81004333 C-872.64386133 1492.97754954 -898.26685551 1444.4306897 -919.45515823 1394.31785583 C-919.95338089 1393.14013611 -920.45160355 1391.96241638 -920.96492386 1390.74900818 C-934.51731027 1358.57198785 -946.09398553 1325.65056336 -956.45515823 1292.31785583 C-956.79176468 1291.25470154 -957.12837112 1290.19154724 -957.47517776 1289.09617615 C-975.68426715 1231.45966395 -986.7165098 1171.35378364 -993.23445511 1111.34263611 C-993.44852903 1109.37867366 -993.66662331 1107.41515072 -993.88484573 1105.4516449 C-997.50014364 1072.70079755 -998.79619874 1040.15921587 -998.71590042 1007.23045349 C-998.70447379 1002.5025831 -998.7113119 997.77493719 -998.72278309 993.04707432 C-998.76735581 971.36993627 -998.25482004 949.92636436 -996.45515823 928.31785583 C-996.32064227 926.54767597 -996.18814251 924.77734108 -996.05818558 923.00682068 C-995.73470433 918.62926678 -995.38451977 914.25447415 -995.01765823 909.88035583 C-994.95512863 909.13101776 -994.89259903 908.38167969 -994.82817459 907.6096344 C-993.74871997 894.78607737 -992.31477518 882.05334708 -990.45515823 869.31785583 C-990.16568412 867.26192416 -989.87663906 865.20593205 -989.58797073 863.14988708 C-988.59868275 856.19715861 -987.5426596 849.25586206 -986.45515823 842.31785583 C-986.30367325 841.35039429 -986.30367325 841.35039429 -986.14912796 840.36338806 C-973.36670246 759.063585 -949.74518205 679.6962916 -910.45515823 589.31785583 C-909.69549759 587.64046326 -909.69549759 587.64046326 -908.92049026 585.92918396 C-896.00428168 557.46908054 -881.96921056 529.60916795 -865.91267776 502.78367615 C-863.81238143 499.23041098 -861.82237635 495.61987339 -859.83015823 492.00535583 C-844.62084046 464.7587723 -826.58622238 438.34470392 -807.95027542 413.33396912 C-806.29283905 411.09897409 -804.6583248 408.84821108 -803.02547073 406.59519958 C-796.44412763 397.54077392 -789.65631088 388.72084168 -782.53718948 380.08348083 C-779.60795274 376.52570341 -776.77691313 372.89849793 -773.95515823 369.25535583 C-768.56962071 362.33684529 -762.83604346 355.74677915 -757.05623245 349.1572113 C-755.51893615 347.39112556 -754.00078746 345.6108121 -752.49031448 343.82176208 C-746.01565913 336.15686482 -739.29333122 328.7773923 -732.38875198 321.49754333 C-729.37811637 318.3223707 -726.43772275 315.08970661 -723.50203323 311.84519958 C-717.01672254 304.72420991 -710.21247602 297.92429727 -703.39290237 291.12522888 C-701.25688466 288.99460949 -699.12631705 286.85864361 -696.99617386 284.72215271 C-695.61433317 283.34097234 -694.23218257 281.96010194 -692.84968948 280.57957458 C-692.22552643 279.9533873 -691.60136337 279.32720001 -690.95828629 278.68203735 C-687.19852958 274.94188408 -683.32556008 271.38638157 -679.30415726 267.92874146 C-676.16387466 265.19286328 -673.16495519 262.30752368 -670.14265823 259.44285583 C-664.94412393 254.54935736 -659.6352547 249.90675463 -654.05281448 245.45066833 C-651.31960937 243.20656308 -648.73379231 240.84917831 -646.14265823 238.44285583 C-641.59026305 234.2580053 -636.87056355 230.40724856 -631.98567581 226.6259613 C-628.20507751 223.69888251 -624.4800787 220.71691011 -620.78841019 217.67845154 C-614.16799459 212.23338463 -607.43773171 206.96136993 -600.58015823 201.81785583 C-599.46906693 200.98399353 -599.46906693 200.98399353 -598.33552933 200.13328552 C-595.71776194 198.1822714 -593.08841169 196.24793144 -590.45515823 194.31785583 C-589.83093979 193.85959412 -589.20672134 193.4013324 -588.56358719 192.92918396 C-576.95329911 184.42175884 -565.13629379 176.27404157 -553.14265823 168.31785583 C-552.28942978 167.75069855 -551.43620132 167.18354126 -550.55711746 166.59919739 C-522.67896482 148.07726605 -494.0158856 131.03276378 -464.45515823 115.31785583 C-463.37991898 114.74599548 -462.30467972 114.17413513 -461.19685745 113.58494568 C-386.68397774 74.12946976 -307.18218718 45.0588772 -168.45515823 14.31785583 C-167.78847122 14.20719788 -167.12178421 14.09653992 -166.43489456 13.98252869 C-138.80386251 9.4117195 -111.13236783 5.27505837 -83.1604805 3.55149841 C-81.16707886 3.37934018 -79.1800545 3.12906274 -77.20080948 2.83601379 C-51.79953868 -0.67789334 -25.58249656 -0.0510295 0 0 Z M-78.85091019 33.09324646 C-81.43393536 33.31602542 -84.01761492 33.52893052 -86.60164261 33.73973083 C-121.17613876 36.59623555 -156.07110014 40.92232823 -189.89949417 48.73387146 C-192.57195333 49.34454421 -195.25001817 49.92108521 -197.93172073 50.48973083 C-202.73708682 51.50957021 -207.53527529 52.55868477 -212.33064651 53.62449646 C-214.47666804 54.1007194 -216.62352834 54.57317335 -218.7710762 55.04246521 C-279.79422262 68.43674026 -339.69233151 89.30703084 -396.45515823 115.31785583 C-397.62433792 115.85281677 -398.79351761 116.38777771 -399.99812698 116.93894958 C-403.07194469 118.3615711 -406.13812714 119.79798014 -409.19881058 121.2485199 C-410.84413507 122.02827766 -412.49042719 122.80599467 -414.13728714 123.58250427 C-479.17498444 154.28662457 -541.34226118 192.21994216 -597.45515823 237.31785583 C-598.09550003 237.83203064 -598.73584183 238.34620544 -599.39558792 238.8759613 C-606.97123534 244.97053121 -614.48410264 251.13204128 -621.87996292 257.4438324 C-625.12947483 260.2138751 -628.42973991 262.9054686 -631.76765823 265.56785583 C-637.29964195 270.06157868 -642.46210662 274.91644861 -647.62239456 279.8266449 C-650.91255366 282.9547619 -654.23255508 286.02226562 -657.66218948 288.99754333 C-660.54730736 291.50081254 -663.29376675 294.07457538 -665.95515823 296.81785583 C-668.53939916 299.48161187 -671.19674078 301.97283109 -674.01375198 304.38426208 C-679.06823416 308.77203792 -683.78078307 313.49324864 -688.50081253 318.23313904 C-690.01508403 319.75277252 -691.53463253 321.26698101 -693.05476761 322.78074646 C-697.8241062 327.54682305 -702.48320232 332.3620999 -706.86995316 337.48753357 C-709.58997894 340.62815167 -712.47252512 343.6154807 -715.33015823 346.63035583 C-720.22041154 351.82544268 -724.85945541 357.13138341 -729.31453323 362.70848083 C-731.60636288 365.50217099 -734.00747636 368.15994361 -736.45515823 370.81785583 C-741.34895302 376.14765692 -745.9153634 381.68621162 -750.45515823 387.31785583 C-751.46449918 388.547906 -752.47498422 389.77701794 -753.48640823 391.00535583 C-760.5167235 399.56169672 -767.2954276 408.26652701 -773.87215042 417.17576599 C-775.55290192 419.45012035 -777.24201764 421.71811428 -778.93172073 423.98582458 C-786.33567322 433.94673404 -793.5213035 444.0246041 -800.45515823 454.31785583 C-800.93162796 455.02232849 -801.40809769 455.72680115 -801.89900589 456.45262146 C-831.73687811 500.6146386 -860.00224987 547.55935968 -880.89265823 596.69676208 C-882.4387104 600.27973799 -884.08670609 603.79641673 -885.76765823 607.31785583 C-900.97156049 639.56881738 -912.91540949 673.43956852 -923.82033157 707.34629822 C-924.40738354 709.16948373 -924.99870926 710.99129163 -925.59041214 712.81297302 C-935.29861503 742.81683235 -942.91406194 773.42415853 -949.06123734 804.34184265 C-949.45443052 806.31420541 -949.85210548 808.28561519 -950.25105667 810.25682068 C-952.06768052 819.26246957 -953.80196264 828.28077605 -955.45515823 837.31785583 C-955.67413773 838.5139447 -955.89311722 839.71003357 -956.11873245 840.94236755 C-960.31759172 864.31421632 -962.93099109 887.86095058 -965.18373489 911.49052429 C-965.43713855 914.13015048 -965.69982625 916.76868935 -965.96443558 919.4072113 C-974.40323159 1005.2695222 -968.65137116 1093.58716139 -953.45515823 1178.31785583 C-953.33330154 1179.00597351 -953.21144485 1179.69409119 -953.08589554 1180.40306091 C-946.01254429 1220.30534718 -935.58568219 1259.71855913 -923.11867142 1298.260849 C-922.45293345 1300.32475306 -921.79421639 1302.39078109 -921.13728714 1304.45750427 C-901.82856962 1365.08842516 -876.01380635 1424.68932145 -843.97273636 1479.69725037 C-842.43055825 1482.36033593 -840.91587598 1485.03740056 -839.40828323 1487.72019958 C-832.78120269 1499.49359227 -825.78289558 1510.96885544 -818.45515823 1522.31785583 C-817.92245316 1523.14704529 -817.38974808 1523.97623474 -816.84090042 1524.83055115 C-806.47363145 1540.96357398 -795.71477509 1556.79458703 -784.45515823 1572.31785583 C-783.6602095 1573.41468689 -783.6602095 1573.41468689 -782.8492012 1574.53367615 C-775.88189852 1584.12440796 -768.78190656 1593.56773631 -761.31453323 1602.77488708 C-758.95939722 1605.67897057 -756.65726956 1608.62008728 -754.36824417 1611.57640076 C-748.52405379 1619.11194125 -742.34313154 1626.31080094 -736.05623245 1633.47850037 C-734.51893615 1635.24458611 -733.00078746 1637.02489957 -731.49031448 1638.81394958 C-725.01565913 1646.47884685 -718.29333122 1653.85831937 -711.38875198 1661.13816833 C-708.37811637 1664.31334097 -705.43772275 1667.54600506 -702.50203323 1670.79051208 C-696.01672254 1677.91150176 -689.21247602 1684.7114144 -682.39290237 1691.51048279 C-680.25688466 1693.64110218 -678.12631705 1695.77706806 -675.99617386 1697.91355896 C-674.61433317 1699.29473933 -673.23218257 1700.67560973 -671.84968948 1702.05613708 C-671.22552643 1702.68232437 -670.60136337 1703.30851166 -669.95828629 1703.95367432 C-666.19852958 1707.69382759 -662.32556008 1711.2493301 -658.30415726 1714.70697021 C-655.16387466 1717.44284839 -652.16495519 1720.32818799 -649.14265823 1723.19285583 C-643.94891493 1728.08184443 -638.64493589 1732.72038894 -633.06843948 1737.17332458 C-630.25096344 1739.48542376 -627.57251333 1741.91039149 -624.89265823 1744.38035583 C-620.78832207 1748.1489353 -616.59441955 1751.70928229 -612.21297073 1755.14988708 C-610.19411058 1756.73695137 -608.19095548 1758.33642994 -606.19734573 1759.95457458 C-590.07736927 1773.01466864 -573.34404199 1785.27553598 -556.45515823 1797.31785583 C-555.68800491 1797.86764099 -554.92085159 1798.41742615 -554.1304512 1798.98387146 C-533.90296387 1813.45651971 -512.90613857 1826.73925012 -491.45515823 1839.31785583 C-489.96097366 1840.19739929 -489.96097366 1840.19739929 -488.43660355 1841.0947113 C-474.19170559 1849.46342544 -459.80108465 1857.4218635 -445.0967598 1864.95213318 C-442.57560673 1866.2555833 -440.07141674 1867.58591414 -437.57234573 1868.93113708 C-426.71099786 1874.7708134 -415.64683243 1879.97789281 -404.38264847 1884.99217224 C-401.6512773 1886.22904535 -398.93744938 1887.4993739 -396.22644424 1888.78015137 C-387.38117699 1892.95291401 -378.42325067 1896.81496931 -369.39265823 1900.56785583 C-368.61414505 1900.89178314 -367.83563187 1901.21571045 -367.03352737 1901.54945374 C-286.35757311 1935.03849369 -201.27890732 1956.75573756 -98.45515823 1969.31785583 C-97.70331253 1969.40410217 -96.95146683 1969.49034851 -96.17683792 1969.57920837 C-82.87776382 1971.09685239 -69.56533893 1972.13478871 -56.20515823 1972.94285583 C-55.12476273 1973.00855774 -54.04436722 1973.07425964 -52.93123245 1973.14195251 C-35.10279437 1974.19606443 -17.31329708 1974.59361665 0.54484177 1974.56785583 C1.65637619 1974.56698975 2.76791061 1974.56612366 3.9131279 1974.56523132 C26.8519087 1974.51883101 49.79015668 1973.80968258 72.66984177 1972.13035583 C73.50681595 1972.06949799 74.34379013 1972.00864014 75.20612717 1971.94593811 C110.83129949 1969.3024909 146.36100792 1964.4655035 181.54484177 1958.31785583 C182.78411423 1958.10226013 184.02338669 1957.88666443 185.30021286 1957.66453552 C264.98292256 1943.470133 343.42420042 1916.78220626 416.54484177 1882.31785583 C417.54112595 1881.85057068 418.53741013 1881.38328552 419.56388474 1880.90184021 C463.3579717 1860.31743552 505.53801476 1836.56574882 545.54484177 1809.31785583 C546.1229863 1808.92598083 546.70113083 1808.53410583 547.29679489 1808.13035583 C570.56806197 1792.34343629 593.15454398 1775.6004981 614.85343552 1757.7094574 C617.28161778 1755.71167465 619.72770591 1753.7360416 622.16984177 1751.75535583 C631.42438371 1744.17080642 640.47911006 1736.35299916 649.33781052 1728.31004333 C651.28110178 1726.55592202 653.24843624 1724.8381289 655.23234177 1723.13035583 C668.28677045 1711.70645022 680.56255865 1699.45915928 692.80900192 1687.18406677 C695.56485531 1684.422803 698.32608204 1681.66699224 701.08781052 1678.91160583 C702.86547535 1677.13328091 704.64283035 1675.3546462 706.41984177 1673.57566833 C707.2334819 1672.76405243 708.04712204 1671.95243652 708.88541794 1671.1162262 C713.09612816 1666.88832111 717.15837913 1662.58963524 721.04218674 1658.05862427 C723.42273169 1655.3008539 725.92789597 1652.66203413 728.41984177 1650.00535583 C732.8594947 1645.23374689 737.06143318 1640.33617594 741.14249802 1635.25144958 C743.99445751 1631.76881286 746.95326302 1628.39024291 749.91984177 1625.00535583 C755.53010498 1618.57706435 760.85952608 1611.9790392 766.06876755 1605.22361755 C767.66355656 1603.16458298 769.27296468 1601.11756694 770.88468552 1599.07176208 C779.05312875 1588.68114728 786.88903742 1578.09058146 794.54484177 1567.31785583 C795.06320602 1566.59179138 795.58157028 1565.86572693 796.11564255 1565.11766052 C836.40012225 1508.68656549 870.09759846 1447.941415 897.54484177 1384.31785583 C897.85226303 1383.6058905 898.1596843 1382.89392517 898.47642136 1382.16038513 C927.33363432 1315.18660687 947.58064668 1245.03069805 960.54484177 1173.31785583 C960.66752426 1172.64506592 960.79020676 1171.972276 960.9166069 1171.27909851 C977.65468111 1079.29210818 979.88884 985.04808075 966.83335495 869.46342468 C966.54296221 867.30387829 966.25800398 865.14365503 965.97306442 862.98338318 C954.65847266 778.14216778 930.10359238 695.1696706 846.54484177 517.31785583 C846.11493942 516.56874939 845.68503708 515.81964294 845.24210739 515.0478363 C817.6333498 467.04372035 785.51741016 421.32149288 749.62565231 379.15037537 C746.75225159 375.76878476 743.94590998 372.34281454 741.16984177 368.88035583 C737.09393075 363.86610559 732.75631383 359.13743297 728.32462692 354.43919373 C724.87938309 350.78431865 721.54445039 347.0515629 718.2469902 343.26292419 C708.05121686 331.61207419 697.03937298 320.70731527 686.10734177 309.75535583 C685.44990982 309.09533569 684.79247787 308.43531555 684.11512375 307.7552948 C674.95393017 298.53018395 674.95393017 298.53018395 665.30094528 289.82884216 C661.99994714 286.98859783 658.88619204 283.9441883 655.73234177 280.94285583 C650.33052692 275.83689346 644.85612199 270.98051735 639.04093552 266.34910583 C636.51760846 264.29569414 634.12551904 262.14597527 631.73234177 259.94285583 C627.35704586 255.96030303 622.7975491 252.29967514 618.12614059 248.67674255 C614.32962866 245.73002978 610.58655162 242.7297956 606.87565231 239.67601013 C600.23328057 234.21435707 593.48243492 228.9213336 586.60734177 223.75535583 C585.4836821 222.90892517 585.4836821 222.90892517 584.33732224 222.0453949 C570.47695134 211.70044116 556.19380462 201.95509849 541.79484177 192.38035583 C541.01014511 191.85805389 540.22544846 191.33575195 539.41697311 190.79762268 C471.80056278 145.83004342 398.48945063 109.01010163 321.51060104 82.98265076 C320.13845961 82.51860988 318.76679205 82.05316648 317.39548874 81.58665466 C292.07657814 72.97540192 266.57346994 65.4630917 240.65970993 58.85765076 C238.76211605 58.37331251 236.86579562 57.88399141 234.96964645 57.39402771 C202.36205404 49.00719731 169.16021411 43.20664552 135.82554245 38.63102722 C133.64388244 38.33145547 131.46274814 38.02828376 129.28165817 37.72459412 C113.63563529 35.56016139 97.97304391 33.90666151 82.23234177 32.63035583 C81.48159378 32.56941742 80.73084579 32.508479 79.95734787 32.44569397 C75.54206426 32.09223049 71.12556329 31.76598611 66.70634079 31.46574402 C65.31245735 31.37037553 63.91879397 31.27170548 62.52543259 31.16899109 C44.52976104 29.86245603 26.45239867 30.07348588 8.41984177 30.06785583 C7.55587532 30.06726669 6.69190887 30.06667755 5.80176163 30.06607056 C-22.50562981 30.05246703 -50.63253426 30.64697436 -78.85091019 33.09324646 Z" fill="#030405" transform="translate(2663.4551582336426,189.68214416503906)"/>
<path d="M0 0 C0.74926758 0.11794922 1.49853516 0.23589844 2.27050781 0.35742188 C27.33516761 4.52114293 52.42197629 14.68470171 75 26 C76.34360596 26.66467285 76.34360596 26.66467285 77.71435547 27.34277344 C123.43495223 50.08264518 167.79100786 82.96249087 201 122 C201.77601563 122.886875 202.55203125 123.77375 203.3515625 124.6875 C215.98740863 139.22897864 227.44318715 154.89262158 238 171 C238.49677246 171.75764648 238.99354492 172.51529297 239.50537109 173.29589844 C276.39230181 230.07858108 301.90491111 299.22258952 287.47998047 367.45996094 C283.42356723 385.5633816 276.78978104 402.69269963 268 419 C267.07767578 420.73636719 267.07767578 420.73636719 266.13671875 422.5078125 C258.0735904 437.16501062 248.13582109 450.54478755 237 463 C236.52643066 463.52996582 236.05286133 464.05993164 235.56494141 464.60595703 C232.41814861 468.11050831 229.22489403 471.56721185 226 475 C225.07960938 475.98419922 225.07960938 475.98419922 224.140625 476.98828125 C220.01210949 481.26424374 215.48547403 484.9833463 210.8515625 488.69921875 C209.07427864 490.13321901 207.31526887 491.5905529 205.5859375 493.08203125 C170.67308785 522.95191373 121.90563155 546.42051213 75 543 C60.66879078 541.469802 47.65653165 536.39929047 36 528 C35.29230469 527.50113281 34.58460938 527.00226562 33.85546875 526.48828125 C15.56557487 512.16660892 11.54078137 486.11319191 6.4732666 464.97283936 C-6.86368589 409.37697717 -27.46931844 356.77767168 -64 312 C-64.42361816 311.47486816 -64.84723633 310.94973633 -65.28369141 310.40869141 C-77.31548263 295.57552095 -90.89363128 281.69731513 -106 270 C-107.18669253 269.02851254 -108.37003539 268.05292518 -109.55078125 267.07421875 C-116.75242864 261.11561034 -124.07738073 255.39001554 -131.625 249.875 C-144.0042376 240.82763028 -155.89962828 231.59231033 -167 221 C-167.89847656 220.154375 -168.79695313 219.30875 -169.72265625 218.4375 C-179.18206992 209.30624096 -185.88056007 199.09433009 -191 187 C-191.26119629 186.39349609 -191.52239258 185.78699219 -191.79150391 185.16210938 C-200.36553505 164.09921614 -198.30666658 135.07310047 -191 114 C-190.71592285 113.16903809 -190.4318457 112.33807617 -190.13916016 111.48193359 C-181.68321899 87.41572923 -168.08108706 66.77097152 -151 48 C-150.29302979 47.22293701 -150.29302979 47.22293701 -149.57177734 46.43017578 C-110.52430306 4.15024972 -55.4941242 -8.97728669 0 0 Z" fill="#010203" transform="translate(3004,1066)"/>
<path d="M0 0 C1.02794678 0.36134033 1.02794678 0.36134033 2.07666016 0.72998047 C43.40856286 15.75877107 75.05415716 53.12760742 93.46362305 91.80615234 C105.7229182 118.68891417 109.83251017 150.4248975 99.8125 178.5625 C91.18463716 201.55520586 73.29262205 218.1056974 54.00390625 232.49804688 C49.81501566 235.63767345 45.66177962 238.82458275 41.5 242 C39.67721075 243.38949008 37.85429665 244.77881641 36.03125 246.16796875 C35.16628906 246.82716309 34.30132813 247.48635742 33.41015625 248.16552734 C31.34870438 249.73458623 29.28444735 251.29982075 27.21875 252.86328125 C-42.55038424 305.82280692 -81.48839955 381.00503111 -100.01171875 465.60546875 C-104.97193202 488.03674193 -111.23492236 510.4599526 -131.4375 523.6875 C-133.28358337 524.80512885 -135.13712077 525.91059694 -137 527 C-137.63421875 527.391875 -138.2684375 527.78375 -138.921875 528.1875 C-161.65301403 541.06177344 -191.53351485 536.92177595 -215.4375 530.3125 C-251.07604869 519.92319912 -283.46512573 499.75614373 -310.37890625 474.41015625 C-312.9491646 471.98801275 -312.9491646 471.98801275 -315.64453125 469.90234375 C-317.74576003 468.20533145 -319.39772081 466.56188301 -321.125 464.5 C-323.17662665 462.0858014 -325.24971382 459.73828071 -327.4375 457.4453125 C-344.534894 439.50298914 -358.35515931 417.80874488 -368 395 C-368.43570313 393.98550781 -368.87140625 392.97101563 -369.3203125 391.92578125 C-375.70410257 376.24735344 -379.83687883 359.7663436 -382 343 C-382.13148437 342.00613281 -382.26296875 341.01226563 -382.3984375 339.98828125 C-390.46467193 263.57706046 -351.8916029 188.40471412 -305.25976562 130.56396484 C-304.07765949 129.09641215 -302.90565059 127.62074238 -301.734375 126.14453125 C-296.67918862 119.8437324 -291.30273326 113.90777927 -285.7890625 108.01171875 C-283.54212715 105.60321447 -281.37948103 103.13856551 -279.25 100.625 C-276.4189819 97.34842215 -273.32444323 94.56854197 -270.0234375 91.7734375 C-267.97191028 89.97538083 -266.08480459 88.0842574 -264.1875 86.125 C-259.94322108 81.83146446 -255.34798862 78.08092056 -250.63378906 74.31738281 C-248.8535625 72.88192218 -247.09402205 71.42342299 -245.3359375 69.9609375 C-179.04122919 15.01539212 -86.32057557 -30.35541937 0 0 Z" fill="#010203" transform="translate(2421,1073)"/>
<path d="M0 0 C1.24449921 0.00060425 2.48899841 0.0012085 3.77120972 0.00183105 C21.82572452 0.02564182 39.72457781 0.21398916 57.6875 2.1875 C58.94127441 2.32172363 60.19504883 2.45594727 61.48681641 2.59423828 C78.4370881 4.44269817 95.14662387 6.99921999 111.6875 11.1875 C113.21431396 11.57228516 113.21431396 11.57228516 114.77197266 11.96484375 C140.17283891 18.47568974 165.26233853 27.24524179 185.6875 44.1875 C186.55890625 44.90679688 187.4303125 45.62609375 188.328125 46.3671875 C204.08350102 59.94774168 214.08356618 77.07279705 216.03125 97.85546875 C216.60830496 119.51907381 206.86615628 141.14890591 192.6875 157.1875 C191.98882813 158.00605469 191.29015625 158.82460937 190.5703125 159.66796875 C158.97078771 195.93432727 110.37100536 215.29219779 63.6875 222.1875 C62.85283203 222.31447266 62.01816406 222.44144531 61.15820312 222.57226562 C51.53916746 223.99642392 42.53344229 224.1875 32.6875 224.1875 C33.0175 249.5975 33.3475 275.0075 33.6875 301.1875 C90.72416619 291.68138897 144.5907066 270.01794177 185.1875 227.5625 C195.3950097 217.28084374 208.07768291 209.14964792 222.875 208.9375 C231.35830837 209.03249785 237.87233674 210.56944787 244.18359375 216.44140625 C249.61134782 222.7432402 251.06871098 229.95793415 250.9609375 238.0625 C249.57438072 253.90886315 240.53690672 266.18401301 229.4375 276.875 C228.12072266 278.18307617 228.12072266 278.18307617 226.77734375 279.51757812 C220.71394978 285.47000222 214.35097261 290.92053719 207.6875 296.1875 C206.58970215 297.05870483 206.58970215 297.05870483 205.46972656 297.94750977 C176.03700162 321.10279731 143.59700988 338.90446382 108.20849609 351.30322266 C106.04420083 352.06238181 103.89032484 352.84374177 101.73828125 353.63671875 C34.71286173 377.42961683 -41.67577406 373.77250418 -108.3125 351.1875 C-109.20420898 350.88650391 -110.09591797 350.58550781 -111.01464844 350.27539062 C-149.93562292 336.88290947 -186.80225865 315.10099042 -217.08984375 287.2265625 C-219.10812103 285.37499705 -221.16599135 283.58917 -223.25 281.8125 C-236.20370902 270.43211596 -248.26381177 258.07600348 -249.7265625 240 C-250.13341134 231.67800826 -249.90639892 223.86658947 -244.3125 217.1875 C-237.10037107 210.96654973 -230.29391346 208.70436145 -220.85546875 208.875 C-203.45904404 210.40941453 -191.59945029 220.73356758 -179.875 232.6875 C-174.99907361 237.60589962 -169.76462802 241.92418185 -164.3125 246.1875 C-163.74176758 246.63996094 -163.17103516 247.09242188 -162.58300781 247.55859375 C-151.73427256 256.12613427 -140.30000323 263.32475634 -128.3125 270.1875 C-127.68085938 270.5582666 -127.04921875 270.9290332 -126.3984375 271.31103516 C-101.12547134 286.12206998 -72.91005646 294.32836546 -44.31176758 299.59667969 C-40.29699491 300.38754252 -36.30698583 301.29983648 -32.3125 302.1875 C-32.3125 276.4475 -32.3125 250.7075 -32.3125 224.1875 C-37.5925 224.1875 -42.8725 224.1875 -48.3125 224.1875 C-52.70331725 223.7473827 -56.9668499 223.25006315 -61.3125 222.5625 C-63.03327759 222.29735596 -63.03327759 222.29735596 -64.78881836 222.02685547 C-113.67477963 214.12847053 -166.82107313 192.81218856 -196.875 151.4375 C-210.00555729 131.90922339 -218.05056354 110.86460378 -213.9140625 86.87695312 C-212.83310011 82.44916489 -211.18734567 78.33110839 -209.3125 74.1875 C-208.8896875 73.22972656 -208.466875 72.27195312 -208.03125 71.28515625 C-193.81600405 42.48275384 -161.92985682 27.22493717 -133.0390625 17.10595703 C-110.24559496 9.42785667 -86.58611652 5.60006811 -62.75 2.9375 C-61.64250397 2.81287384 -61.64250397 2.81287384 -60.51263428 2.68572998 C-40.33786592 0.44733935 -20.29264415 -0.01818111 0 0 Z" fill="#010203" transform="translate(2666.3125,1486.8125)"/>
<path d="M0 0 C0.76618652 0.11827148 1.53237305 0.23654297 2.32177734 0.35839844 C45.06063287 7.16819784 87.86555151 30.90960744 115 65 C115.75410156 65.928125 116.50820312 66.85625 117.28515625 67.8125 C122.10831181 73.84757958 126.49672701 80.09443214 130.625 86.625 C131.28205933 87.65560547 131.28205933 87.65560547 131.95239258 88.70703125 C135 93.62938086 135 93.62938086 135 97 C134.41847168 97.32049316 133.83694336 97.64098633 133.23779297 97.97119141 C118.47538305 106.13658621 104.11368528 114.76004737 90 124 C89.19691406 124.52480957 88.39382813 125.04961914 87.56640625 125.59033203 C64.01573486 141.02464267 41.43523474 157.67986623 19.70898438 175.59521484 C18.12011677 176.90126401 16.52137947 178.19528081 14.921875 179.48828125 C9.57766608 183.80992506 4.40189728 188.26694386 -0.6796875 192.89453125 C-2.70154184 194.72917685 -4.74678522 196.52768786 -6.8125 198.3125 C-18.31395232 208.37192961 -29.19008546 219.03093732 -39.97705078 229.84667969 C-42.38850966 232.26353992 -44.80532439 234.6749529 -47.22265625 237.0859375 C-48.78157102 238.64551251 -50.34017586 240.2053974 -51.8984375 241.765625 C-52.96425552 242.82840668 -52.96425552 242.82840668 -54.05160522 243.91265869 C-58.02603201 247.90555636 -61.82946132 251.99502433 -65.50408936 256.26597595 C-67.57369105 258.66500903 -69.72520019 260.98535981 -71.875 263.3125 C-76.32186477 268.19336809 -80.52428901 273.22375524 -84.66748047 278.36279297 C-86.18221604 280.22388068 -87.71671785 282.06757206 -89.25390625 283.91015625 C-105.56162719 303.48441191 -120.22776848 324.25885325 -135 345 C-154.09127698 334.08502875 -170.09030631 317.62101733 -183 300 C-183.41604492 299.43361816 -183.83208984 298.86723633 -184.26074219 298.28369141 C-213.00212342 258.56770663 -225.69880027 208.36151063 -218.375 159.8125 C-210.08234898 109.64643578 -183.70501964 64.20427959 -142.37890625 34.0625 C-117.85616134 16.68650898 -91.43278334 5.70862548 -62 0 C-61.31147949 -0.13422363 -60.62295898 -0.26844727 -59.91357422 -0.40673828 C-40.57103263 -3.96680742 -19.36569578 -3.14085601 0 0 Z" fill="#000000" transform="translate(2153,628)"/>
<path d="M0 0 C0.65790527 0.09651855 1.31581055 0.19303711 1.99365234 0.29248047 C20.75001331 3.09971169 38.0119812 9.73623905 55 18 C56.04462402 18.50684326 56.04462402 18.50684326 57.11035156 19.02392578 C80.10193299 30.33930193 101.40358875 47.69946471 117 68 C117.81082031 69.00675781 118.62164063 70.01351562 119.45703125 71.05078125 C150.41082697 109.72662772 163.18060133 159.67607561 158.5390625 208.71875 C152.70756917 258.23108101 127.0712247 304.34918897 88.45703125 335.78515625 C87.02028096 336.90779146 85.57654434 338.02155981 84.125 339.125 C83.45315674 339.64006104 82.78131348 340.15512207 82.08911133 340.68579102 C80.1953125 342.0703125 80.1953125 342.0703125 77 344 C73.56800009 342.85600003 73.201961 342.22662783 71.28515625 339.30859375 C70.76993408 338.53660645 70.25471191 337.76461914 69.72387695 336.96923828 C69.17562256 336.13376465 68.62736816 335.29829102 68.0625 334.4375 C61.99959965 325.38531803 55.62168617 316.64830948 49 308 C48.11432876 306.83482888 47.2289046 305.6694699 46.34375 304.50390625 C38.04829164 293.6133446 29.3081027 283.10619127 20.43261719 272.68701172 C19.01400845 271.01649597 17.60406198 269.33898958 16.1953125 267.66015625 C10.86072074 261.33195417 5.37593939 255.17203523 -0.30078125 249.1484375 C-0.99067139 248.41621979 -1.68056152 247.68400208 -2.39135742 246.92959595 C-9.56495435 239.35122337 -16.90486247 231.94337265 -24.29394531 224.57568359 C-26.53048995 222.34458428 -28.761523 220.10807053 -30.9921875 217.87109375 C-32.44238723 216.42155368 -33.89289651 214.97232321 -35.34375 213.5234375 C-36.32208801 212.54206314 -36.32208801 212.54206314 -37.32019043 211.54086304 C-41.17726434 207.70313507 -45.14569053 204.04769879 -49.26701355 200.49487305 C-51.48721422 198.57972932 -53.64853335 196.60326724 -55.8125 194.625 C-60.13260791 190.72636603 -64.58071381 187.02496142 -69.10546875 183.3671875 C-71.61328163 181.3162636 -74.0805776 179.22618671 -76.53637695 177.11352539 C-84.75875218 170.05620779 -93.32985668 163.49510737 -102 157 C-102.73992188 156.44441406 -103.47984375 155.88882813 -104.2421875 155.31640625 C-122.31111923 141.78033802 -140.65590841 128.67573133 -160.08056641 117.14794922 C-162.84918168 115.49213276 -165.57832168 113.77442471 -168.3125 112.0625 C-177.3929626 106.45742063 -186.71517183 101.25670601 -196 96 C-194.85732032 92.9923566 -193.67837604 90.26316895 -191.8984375 87.58203125 C-191.29310181 86.66780396 -191.29310181 86.66780396 -190.67553711 85.73510742 C-190.24635986 85.10064697 -189.81718262 84.46618652 -189.375 83.8125 C-188.70513062 82.81730347 -188.70513062 82.81730347 -188.02172852 81.80200195 C-158.22312834 37.9992816 -113.73350178 10.03395375 -62 0 C-61.31147949 -0.13422363 -60.62295898 -0.26844727 -59.91357422 -0.40673828 C-40.52732729 -3.97485155 -19.41268439 -3.04409947 0 0 Z" fill="#000000" transform="translate(3241,628)"/>
<path d="M0 0 C3.58217688 2.77770495 6.8195414 5.77394342 10 9 C10.57492188 9.56460937 11.14984375 10.12921875 11.7421875 10.7109375 C22.78145109 22.43658017 25.36779886 37.74048489 25.1484375 53.19921875 C24.59986385 67.24559151 17.41874443 80.85890319 7.390625 90.51171875 C-4.37093317 100.56220278 -19.49148331 107.04790332 -35.23046875 106.31640625 C-51.03222426 104.51112812 -62.80157918 99.33474942 -74 88 C-74.64839844 87.37351562 -75.29679687 86.74703125 -75.96484375 86.1015625 C-85.92441635 75.77150251 -89.93527565 60.92785737 -90.375 46.875 C-89.851212 31.03565083 -83.01618242 16.7242722 -71.890625 5.62890625 C-51.99235061 -12.46776762 -22.61388377 -14.0878384 0 0 Z" fill="#020304" transform="translate(3059,1230)"/>
<path d="M0 0 C1.18070068 0.00845947 1.18070068 0.00845947 2.38525391 0.01708984 C18.73232486 0.3546597 31.82895464 6.74792265 43.25 18.3125 C43.81332031 18.85390625 44.37664063 19.3953125 44.95703125 19.953125 C55.13403089 30.58661276 58.63542297 44.62135878 58.54882812 58.87548828 C58.18241581 73.27612385 52.70369746 87.74940651 42.60546875 98.21875 C29.30618062 110.04033945 13.88565213 116.09199746 -4.09375 115.625 C-21.12675254 113.62111735 -34.77396245 104.96296974 -45.5625 91.9375 C-54.73787426 79.48058012 -58.14623534 64.59264856 -56.75 49.3125 C-53.86823312 33.97563899 -46.52033085 20.72969483 -33.9765625 11.20703125 C-23.38116391 4.24730865 -12.76740036 -0.0967018 0 0 Z" fill="#020305" transform="translate(2305.75,1220.6875)"/>
<path d="M0 0 C3.58217688 2.77770495 6.8195414 5.77394342 10 9 C10.57492188 9.56460937 11.14984375 10.12921875 11.7421875 10.7109375 C22.78145109 22.43658017 25.36779886 37.74048489 25.1484375 53.19921875 C24.59986385 67.24559151 17.41874443 80.85890319 7.390625 90.51171875 C-4.37093317 100.56220278 -19.49148331 107.04790332 -35.23046875 106.31640625 C-51.03222426 104.51112812 -62.80157918 99.33474942 -74 88 C-74.64839844 87.37351562 -75.29679687 86.74703125 -75.96484375 86.1015625 C-85.92441635 75.77150251 -89.93527565 60.92785737 -90.375 46.875 C-89.851212 31.03565083 -83.01618242 16.7242722 -71.890625 5.62890625 C-51.99235061 -12.46776762 -22.61388377 -14.0878384 0 0 Z M-63 10 C-63.80566406 10.59296875 -64.61132812 11.1859375 -65.44140625 11.796875 C-68.11796792 14.10157848 -69.75676676 16.26423911 -71.625 19.25 C-72.19476562 20.14203125 -72.76453125 21.0340625 -73.3515625 21.953125 C-76.93967995 28.58519042 -78.54078976 34.25933478 -78.4375 41.8125 C-78.42920166 42.60003662 -78.42090332 43.38757324 -78.41235352 44.19897461 C-78.06890399 56.10970647 -73.44794581 64.17916094 -65.37890625 72.71484375 C-56.53460855 81.05011712 -45.66511646 83.51269313 -33.890625 83.2734375 C-23.4170179 82.53734062 -14.16947095 77.41705097 -6.9609375 69.86328125 C1.97929866 58.96380185 3.99259348 47.82640777 3 34 C0.50549781 22.52528994 -6.63978696 13.81667689 -16 7 C-30.64876027 -2.16657272 -49.51079271 -0.03847984 -63 10 Z" fill="#FCFCFC" transform="translate(3059,1230)"/>
<path d="M0 0 C1.18070068 0.00845947 1.18070068 0.00845947 2.38525391 0.01708984 C18.73232486 0.3546597 31.82895464 6.74792265 43.25 18.3125 C43.81332031 18.85390625 44.37664063 19.3953125 44.95703125 19.953125 C55.13403089 30.58661276 58.63542297 44.62135878 58.54882812 58.87548828 C58.18241581 73.27612385 52.70369746 87.74940651 42.60546875 98.21875 C29.30618062 110.04033945 13.88565213 116.09199746 -4.09375 115.625 C-21.12675254 113.62111735 -34.77396245 104.96296974 -45.5625 91.9375 C-54.73787426 79.48058012 -58.14623534 64.59264856 -56.75 49.3125 C-53.86823312 33.97563899 -46.52033085 20.72969483 -33.9765625 11.20703125 C-23.38116391 4.24730865 -12.76740036 -0.0967018 0 0 Z M-26 25.5625 C-33.28912757 34.53685762 -35.56680557 45.02573219 -34.75 56.3125 C-32.65397802 68.32749214 -27.21582366 77.59905192 -17.75 85.3125 C-7.13815372 91.88097714 3.42940223 94.03550245 15.76953125 91.625 C26.8436426 88.53095259 34.48521939 82.57793668 41.25 73.3125 C46.74908181 63.38965188 48.95929108 53.47796884 46.6015625 42.21484375 C43.25655786 31.13630274 36.89022689 21.60502442 26.69140625 15.875 C7.95780767 6.3042791 -11.72291365 10.37488519 -26 25.5625 Z" fill="#FCFCFC" transform="translate(2305.75,1220.6875)"/>
</svg>